<svg width="80" height="80" viewBox="0 0 80 80" fill="none" xmlns="http://www.w3.org/2000/svg">
<rect width="80" height="80" rx="40" fill="#181818"/>
<path d="M28.1465 53.1849V53.6953H36.3012V43.6575C36.3012 42.7218 37.5623 42.3815 37.9826 43.2322L38.9074 45.1887C40.1684 47.8257 40.8409 50.4628 40.8409 53.1849V53.6953H48.9957V43.9127C48.9957 42.977 50.2567 42.6367 50.677 43.4874L51.6018 45.529C52.7788 47.9959 53.3673 50.6329 53.3673 53.1849V53.6953H61.522V43.9127L60.1769 42.8068C54.7124 38.0431 51.854 32.5138 51.854 26.7293V26.304L43.6993 26.304V36.0866C43.6993 37.0224 42.4383 37.3626 42.0179 36.512L41.0932 34.4703C39.9162 32.0034 39.3277 29.3664 39.3277 26.8144V26.3891H31.173V36.3418C31.173 37.2775 29.9119 37.6178 29.4916 36.7671L28.5668 34.8106C27.3058 32.1736 26.6332 29.5365 26.6332 26.8144V26.3891H18.4785V36.1717L19.8236 37.2775C25.2881 41.8711 28.1465 47.4855 28.1465 53.1849Z" fill="white"/>
</svg>
